<svg xmlns="http://www.w3.org/2000/svg" width="128" height="128" viewBox="0 0 128 128"><defs><style>.cls-1{fill:#231f20;}.cls-2{fill:none;stroke:#231f20;stroke-miterlimit:10;stroke-width:0.95px;}</style></defs><title>Free Icons</title><g id="Layer_15" data-name="Layer 15"><path class="cls-1" d="M43.53,27.52c.77-1.54,1.22-1.9,1.72-1.93,1.62-.07,3.28-.17,4.93-.19,1.42,0,2.85.14,4.28.15,2.46,0,4.93-.06,7.4-.12.73,0,1.46,0,2.18-.05s1.4-.13,2.1-.16c.11,0,.24-.08.35,0a2.31,2.31,0,0,1,.17,1.92c0,.16-.1.43-.16.43-.54.05-1,1.33-1.54,1.33a19.14,19.14,0,0,0-3.18.37,5.5,5.5,0,0,1-1.28,0c-.54-.07-1.08-.24-1.62-.31-.75-.09-4.24-.15-7.6-.27-1.68-.06-3.33-.14-4.59-.24a15.47,15.47,0,0,1-2.22-.25A4.71,4.71,0,0,1,43.53,27.52Z"/><path class="cls-1" d="M47,37.32c.63-1.57,1-1.92,1.35-2,1.12,0,2.24-.14,3.38-.16,1,0,2,.15,3,.15,1.72,0,3.44-.08,5.17-.14.51,0,1,0,1.53,0A14.67,14.67,0,0,1,62.86,35c.08,0,.17-.08.25,0a3.17,3.17,0,0,1,.12,1.92c0,.16-.07.43-.11.44-.38,0-.67,1.32-1.07,1.32a9.18,9.18,0,0,0-2.23.36,2.66,2.66,0,0,1-.89,0c-.38-.07-.76-.24-1.15-.31s-3-.13-5.34-.25c-1.19-.06-2.37-.15-3.27-.26a8.13,8.13,0,0,1-1.58-.28C47.41,37.85,47.25,37.59,47,37.32Z"/><path class="cls-2" d="M14.34,22.72a1.12,1.12,0,0,1,1.4-.74C18.66,22.88,13.39,25.78,14.34,22.72Z"/><path class="cls-2" d="M85.18,31.58a1.12,1.12,0,0,1,1.4-.74C89.5,31.75,84.23,34.65,85.18,31.58Z"/><path class="cls-1" d="M97.15,38.05a1.12,1.12,0,0,1,1.4-.74C101.47,38.22,96.2,41.12,97.15,38.05Z"/><path class="cls-2" d="M45.94,69.17a1.11,1.11,0,0,1,1.51-.47C50.16,70.11,44.45,72,45.94,69.17Z"/><path class="cls-1" d="M22,55.08a1.13,1.13,0,0,1,1.51-.48C26.19,56,20.49,57.92,22,55.08Z"/><path class="cls-1" d="M76.17,74.67,72.83,69.5c-.41-.62-.87-1.21-1.26-1.85-1.39-2.24-2.74-4.5-4.15-6.72-.62-1-1.31-1.93-2-2.85A23.29,23.29,0,0,1,63,54.33c-.19-.42.09-.58.64-.52a3.86,3.86,0,0,1,1,.25,2.36,2.36,0,0,1,1.06.68c.51.58,1,1.16,1.51,1.75s.88,1.24,1.31,1.87c.84,1.28,1.63,2.58,2.38,3.93C71.85,63.9,73,65.4,74.07,67l3.38,5.16c.7,1.06,1.4,2.12,2.12,3.15,1.09,1.58,2.17,3.17,3.36,4.64a31.74,31.74,0,0,0,3,3.13,7.86,7.86,0,0,1,.65.64,3.24,3.24,0,0,1,.45.52,1.37,1.37,0,0,1,.23.4,7.05,7.05,0,0,1,.08.73,1.5,1.5,0,0,0,.1.32c.27.3-.85.65-1.77.13A12,12,0,0,1,82.39,83c-1-1-1.82-2.14-2.66-3.25-1.26-1.66-2.43-3.38-3.61-5.08Z"/><path class="cls-1" d="M87.73,80.07a20.73,20.73,0,0,1,.92,3.1A5.87,5.87,0,0,1,88.76,85a4.49,4.49,0,0,1-.13.59,3.41,3.41,0,0,1-.34.63,2.54,2.54,0,0,1-1,.81,2.36,2.36,0,0,1-1.29.15,3.6,3.6,0,0,1-1-.31,7.37,7.37,0,0,1-1.47-1,19.29,19.29,0,0,1-2.26-2.26c-1-1.16-1.94-2.33-2.81-3.54-3.1-4.16-5.93-8.61-8.68-13-1.22-2-2.49-3.89-3.77-5.79-1.62-2.45-3.28-4.88-4.7-7.46-.43-.82-.24-.81.45-.35a13,13,0,0,1,3,2.69,78.75,78.75,0,0,1,5.13,7.45q2.35,3.84,4.74,7.69c1.86,3.08,4.19,6,6.33,9a24,24,0,0,0,3.93,4.37c.73.58,1.59.9,1.84.57.41-.18.3-1.22.07-2.13a36.35,36.35,0,0,0-2.81-6.79c-1.71-3.36-3.58-6.68-5.53-9.9-1.51-2.5-3.18-4.84-4.77-7.25l-1.07-1.58c-1.3-2-1.49-2.77-1.32-3.48a2.58,2.58,0,0,1,.12-.48c.22-.41,1,.21,2.17,1.57A119,119,0,0,1,82.4,68.84a94.06,94.06,0,0,1,5.38,11.21Z"/><path class="cls-1" d="M60.52,52.86a20.48,20.48,0,0,0,8.69-4.27,21.71,21.71,0,0,0,5.87-7.8,24,24,0,0,0,1.84-7,26.47,26.47,0,0,0-.19-6.35,24.26,24.26,0,0,0-2-6.05A22.26,22.26,0,0,0,71,16.27a22.46,22.46,0,0,0-5.19-3.75,23.79,23.79,0,0,0-5.38-2,27.26,27.26,0,0,0-5.68-.65A25.46,25.46,0,0,0,41,14c-1.26.82-1.48.31-.71-.92A10.93,10.93,0,0,1,46,9a27,27,0,0,1,16-.3A22.94,22.94,0,0,1,75,18a24.5,24.5,0,0,1,3.68,9.1,24.72,24.72,0,0,1-4.83,19.63,25.22,25.22,0,0,1-3.83,3.83,24,24,0,0,1-4.62,2.83,23.74,23.74,0,0,1-13,1.86,23.89,23.89,0,0,1-21-24.53,22.62,22.62,0,0,1,.33-3.37,15.9,15.9,0,0,1,1.35-4.29,3.64,3.64,0,0,1,1.31-1.58,3.54,3.54,0,0,1,.6-.35c.6-.12,0,1.44-.7,4.2a23.54,23.54,0,0,0,.24,12.73,21,21,0,0,0,7.28,10.59A22.66,22.66,0,0,0,60.5,52.81Z"/><path class="cls-1" d="M90.73,69.46a15.71,15.71,0,0,0-1.91-3.11,9.25,9.25,0,0,0-.91-.87,4,4,0,0,0-1.69-1,3.22,3.22,0,0,0-2,.15,4.61,4.61,0,0,0-1.65,1.12c-.64.61-1.11,1.38-1.81,2-.21.16-.69-.16-1-.7a1.59,1.59,0,0,1,0-1.76A9.68,9.68,0,0,1,82.31,63a5.67,5.67,0,0,1,3.59-.77,7,7,0,0,1,2.17.68c.32.17.6.37.9.56s.53.44.78.66a14.77,14.77,0,0,1,2.49,3.43c.41.74.77,1.5,1.11,2.26.52,1.16.94,2.35,1.38,3.52.34.91.77,1.78,1.1,2.7a6.32,6.32,0,0,1,.22.61c.22.78.09,1.08-.46,1.34a2.71,2.71,0,0,1-.39.17.91.91,0,0,1-1.1-.6c-.72-1.48-1.27-3.07-1.89-4.66a34.24,34.24,0,0,0-1.53-3.44Z"/><path class="cls-1" d="M100.28,73.92a21.3,21.3,0,0,0-1.38-2.84c-.2-.33-.45-.61-.67-.92a7.26,7.26,0,0,0-2.69-2.6,2.56,2.56,0,0,0-1.49-.16,19.18,19.18,0,0,0-1.84.77c-.22.06-.58-.4-.72-1a1.35,1.35,0,0,1,.49-1.6,5,5,0,0,1,3.32-.46A5.37,5.37,0,0,1,98,66.68a20.91,20.91,0,0,1,2.25,2.5A20.71,20.71,0,0,1,102,72.26c.3.65.56,1.31.82,2,.39,1,.7,2,1,3,.26.79.62,1.53.88,2.35a4.81,4.81,0,0,1,.16.54c.15.7,0,1-.6,1.15-.14,0-.27.08-.41.1a1,1,0,0,1-1-.58c-.54-1.2-1-2.54-1.46-3.89-.35-1-.71-2-1.15-3Z"/><path class="cls-1" d="M111.9,95.29c-.14-2.05-.34-4.09-.66-6.12-.12-.73-.3-1.46-.44-2.19a28.55,28.55,0,0,0-2.23-7.43,6.41,6.41,0,0,0-2-2.46,3,3,0,0,0-1.63-.48,4.43,4.43,0,0,0-.85.14c-.14,0-.29.06-.44.11l-.46.17c-.39.12-.71-.36-.61-1a2,2,0,0,1,.52-1.11,2.19,2.19,0,0,1,1.45-.69,4.79,4.79,0,0,1,3.14.82,6.89,6.89,0,0,1,1.16,1,10.9,10.9,0,0,1,.85,1.08,14.89,14.89,0,0,1,2,4.63c.49,1.88,1.09,3.77,1.45,5.69.39,2.1.65,4.22.85,6.33.11,1.3.21,2.6.28,3.9.11,2,.13,4,.18,5.92,0,1.52.17,3,.18,4.54,0,.34,0,.66,0,1-.06,1.26-.29,1.65-.91,1.84a3.31,3.31,0,0,1-.42.12c-.47,0-.79-.49-.83-1.37-.16-2.62-.19-5.37-.28-8.14-.08-2.06-.16-4.14-.35-6.2Z"/><path class="cls-1" d="M83.27,100.34a64.31,64.31,0,0,1-6.63-8.17,36.69,36.69,0,0,1-2-3.28,17.58,17.58,0,0,1-2.17-6.62,5,5,0,0,1,1-3.72,3.11,3.11,0,0,1,1.9-1,3.62,3.62,0,0,1,2,.41,11.68,11.68,0,0,1,2.55,1.85c.75.69,1.46,1.39,2.12,2.1.87.92,1.72,1.83,2.57,2.7.44.43.86.85,1.29,1.23a4.12,4.12,0,0,0,1.26.83.88.88,0,0,1,.25.09.37.37,0,0,1,.14.18c0,.12,0,.44-.45.61a2.6,2.6,0,0,1-1.73-.06,5.27,5.27,0,0,1-1.87-1.09c-2-1.82-3.6-3.76-5.33-5.4a5.22,5.22,0,0,0-2.45-1.51,1,1,0,0,0-.83.36A2.35,2.35,0,0,0,74.32,81,7.51,7.51,0,0,0,75,85.08,26.77,26.77,0,0,0,77,89.14a48.15,48.15,0,0,0,6.23,8,60.74,60.74,0,0,0,4.55,4.38,65.72,65.72,0,0,0,7.66,5.79,11.92,11.92,0,0,1,4.61,6.31,12.32,12.32,0,0,1,.41,1.67,6.74,6.74,0,0,1,.09,2.22,1.78,1.78,0,0,1-.19.59,2.89,2.89,0,0,1-.35.42c-.12.11-.22.25-.31.32-.27.26-1-.57-1.24-2a14.15,14.15,0,0,0-2.27-5.57,10.21,10.21,0,0,0-2.09-2.06l-.62-.44-.73-.5q-.75-.49-1.47-1a59.78,59.78,0,0,1-8.06-6.93Z"/><path class="cls-1" d="M34.76,48.91a22.2,22.2,0,0,0,8.67,6.44c.61.28,1.26.45,1.89.67s1.29.35,1.94.51a23.21,23.21,0,0,0,14-1,20.61,20.61,0,0,0,5.43-3.25,39.89,39.89,0,0,0,5.49-6c.55-.65,1-.27,1,.64a5.16,5.16,0,0,1-.3,1.7,7.39,7.39,0,0,1-1.17,2A24,24,0,0,1,56.06,59a28.1,28.1,0,0,1-10.86-.8,24.77,24.77,0,0,1-10.29-6,22.77,22.77,0,0,1-4.37-5.91A20.81,20.81,0,0,1,28.67,41a10.49,10.49,0,0,1-.25-1.36c-.06-.46-.14-.92-.19-1.38a21.51,21.51,0,0,1-.07-2.78,21.78,21.78,0,0,1,1.95-8.29A15.72,15.72,0,0,1,31,25.52c1.25-2,2-2.45,2.69-2.45a2,2,0,0,1,.5,0c.47.16.08,1-.74,2.37a20.26,20.26,0,0,0-3,13.64,19.87,19.87,0,0,0,4.34,9.77Z"/></g></svg>